<?xml version="1.0" encoding="utf-8"?>
<!-- Generator: Adobe Illustrator 15.1.0, SVG Export Plug-In . SVG Version: 6.00 Build 0)  -->
<!DOCTYPE svg PUBLIC "-//W3C//DTD SVG 1.1//EN" "http://www.w3.org/Graphics/SVG/1.1/DTD/svg11.dtd">
<svg version="1.1" id="Layer_1" xmlns="http://www.w3.org/2000/svg" xmlns:xlink="http://www.w3.org/1999/xlink" x="0px" y="0px"
	 width="296px" height="63.333px" viewBox="0 0 296 63.333" enable-background="new 0 0 296 63.333" xml:space="preserve">
<g id="Automation" display="none">
	<circle display="inline" fill="none" stroke="#636466" stroke-width="2" cx="454.145" cy="14.033" r="48.5"/>
	<path display="inline" fill="#1F1E21" d="M501.279,88.045h0.027l5.42,7.924c0.168,0.238,0.279,0.363,0.545,0.363
		c0.279,0,0.475-0.14,0.475-0.615v-8.875c0-0.42-0.182-0.643-0.502-0.643s-0.504,0.223-0.504,0.643v7.545h-0.025l-5.352-7.823
		c-0.141-0.196-0.307-0.364-0.588-0.364c-0.279,0-0.502,0.195-0.502,0.588v8.902c0,0.42,0.182,0.645,0.502,0.645
		c0.322,0,0.504-0.225,0.504-0.645V88.045L501.279,88.045z M494.391,95.413c-2.338,0-3.137-2.271-3.137-4.146
		c0-1.877,0.799-4.145,3.137-4.145s3.137,2.268,3.137,4.145C497.527,93.142,496.729,95.413,494.391,95.413 M490.164,91.266
		c0,2.533,1.412,5.066,4.229,5.066c2.814,0,4.227-2.533,4.227-5.066c0-2.534-1.412-5.066-4.227-5.066
		C491.576,86.2,490.164,88.732,490.164,91.266 M488.537,86.843c0-0.421-0.182-0.644-0.504-0.644c-0.32,0-0.504,0.223-0.504,0.644
		v8.847c0,0.42,0.184,0.645,0.504,0.645c0.322,0,0.504-0.225,0.504-0.645V86.843z M483.912,87.206h1.934
		c0.32,0,0.531-0.209,0.531-0.461s-0.209-0.461-0.531-0.461h-4.871c-0.322,0-0.531,0.209-0.531,0.461s0.209,0.461,0.531,0.461h1.932
		v8.484c0,0.42,0.184,0.645,0.504,0.645c0.322,0,0.504-0.225,0.504-0.645v-8.484H483.912z M478.887,93.159h-4.172l2.07-5.646h0.027
		L478.887,93.159z M474.379,94.081h4.842l0.658,1.791c0.098,0.252,0.211,0.463,0.561,0.463c0.293,0,0.447-0.183,0.447-0.393
		c0-0.111-0.041-0.279-0.098-0.42l-3.205-8.595c-0.127-0.321-0.279-0.728-0.783-0.728s-0.658,0.405-0.785,0.728l-3.205,8.595
		c-0.057,0.141-0.098,0.309-0.098,0.42c0,0.21,0.152,0.393,0.445,0.393c0.352,0,0.436-0.211,0.562-0.463L474.379,94.081z
		 M466.314,94.583h-0.027l-2.213-7.726c-0.125-0.421-0.361-0.657-0.77-0.657c-0.447,0-0.924,0.139-1.023,0.783l-1.188,7.979
		c-0.041,0.252-0.141,0.783-0.141,0.91c0,0.377,0.268,0.461,0.477,0.461c0.363,0,0.475-0.237,0.531-0.602l1.246-8.414h0.027
		l2.562,8.498c0.098,0.309,0.211,0.518,0.504,0.518c0.309,0,0.447-0.168,0.602-0.672l2.492-8.371h0.029l1.246,8.441
		c0.055,0.363,0.168,0.602,0.529,0.602c0.209,0,0.477-0.084,0.477-0.461c0-0.127-0.1-0.658-0.141-0.91l-1.188-7.979
		c-0.098-0.644-0.574-0.782-1.023-0.782c-0.404,0-0.613,0.236-0.74,0.657L466.314,94.583z M455.676,95.413
		c-2.338,0-3.137-2.271-3.137-4.146c0-1.877,0.799-4.145,3.137-4.145s3.137,2.268,3.137,4.145
		C458.812,93.142,458.014,95.413,455.676,95.413 M451.447,91.266c0,2.533,1.414,5.066,4.229,5.066s4.229-2.533,4.229-5.066
		c0-2.534-1.414-5.066-4.229-5.066S451.447,88.732,451.447,91.266 M448.805,87.206h1.932c0.322,0,0.533-0.209,0.533-0.461
		s-0.211-0.461-0.533-0.461h-4.869c-0.32,0-0.531,0.209-0.531,0.461s0.211,0.461,0.531,0.461h1.934v8.484
		c0,0.42,0.18,0.645,0.502,0.645c0.32,0,0.504-0.225,0.504-0.645v-8.484H448.805z M436.699,92.864c0,2.297,1.807,3.471,3.738,3.471
		s3.736-1.174,3.736-3.471v-6.021c0-0.421-0.184-0.644-0.502-0.644c-0.322,0-0.504,0.223-0.504,0.644v5.895
		c0,1.834-1.33,2.675-2.73,2.675c-1.402,0-2.73-0.841-2.73-2.675v-5.895c0-0.421-0.184-0.644-0.504-0.644s-0.504,0.223-0.504,0.644
		V92.864L436.699,92.864z M433.812,93.159h-4.172l2.072-5.646h0.025L433.812,93.159z M429.305,94.081h4.842l0.658,1.791
		c0.098,0.252,0.211,0.463,0.561,0.463c0.293,0,0.447-0.183,0.447-0.393c0-0.111-0.041-0.279-0.098-0.42l-3.205-8.595
		c-0.125-0.321-0.279-0.728-0.783-0.728s-0.658,0.405-0.785,0.728l-3.205,8.595c-0.057,0.141-0.098,0.309-0.098,0.42
		c0,0.21,0.152,0.393,0.447,0.393c0.35,0,0.434-0.211,0.561-0.463L429.305,94.081z M422.332,87.206h1.932
		c0.322,0,0.533-0.209,0.533-0.461s-0.211-0.461-0.533-0.461h-4.869c-0.322,0-0.533,0.209-0.533,0.461s0.211,0.461,0.533,0.461
		h1.932v8.484c0,0.42,0.184,0.645,0.504,0.645s0.502-0.225,0.502-0.645V87.206L422.332,87.206z M415.188,96.333
		c1.92,0,3.164-1.355,3.164-3.162c0-3.192-4.732-2.297-4.732-4.496c0-0.825,0.757-1.553,1.809-1.553
		c1.062,0,1.399,0.699,1.918,0.699c0.182,0,0.42-0.225,0.42-0.531c0-0.476-1.176-1.09-2.269-1.09
		c-1.515,0.041-2.884,0.936-2.884,2.545c0,3.024,4.732,2.102,4.732,4.495c0,1.052-0.898,2.171-2.298,2.171
		c-0.715,0-1.541-0.42-1.651-0.519c-0.112-0.099-0.365-0.237-0.477-0.237c-0.266,0-0.477,0.225-0.477,0.489
		C412.445,95.691,413.535,96.333,415.188,96.333 M407.729,91.743h2.785c0.322,0,0.532-0.211,0.532-0.462
		c0-0.252-0.21-0.461-0.532-0.461h-2.771v-3.614h2.898c0.321,0,0.531-0.209,0.531-0.461s-0.21-0.461-0.531-0.461h-3.304
		c-0.446,0-0.614,0.182-0.614,0.531v8.903c0,0.35,0.168,0.53,0.614,0.53h3.442c0.322,0,0.531-0.209,0.531-0.461
		s-0.209-0.461-0.531-0.461h-3.053v-3.584H407.729z M403.104,87.206h1.933c0.321,0,0.532-0.209,0.532-0.461
		s-0.211-0.461-0.532-0.461h-4.869c-0.321,0-0.532,0.209-0.532,0.461s0.211,0.461,0.532,0.461h1.933v8.484
		c0,0.42,0.18,0.645,0.502,0.645c0.321,0,0.504-0.225,0.504-0.645v-8.484H403.104z"/>
	<path display="inline" fill="#69A33A" d="M471.625,18.685h-2.576V9.273h2.576V18.685z M442.826,17.867l7.736-3.809v1.904
		l-5.826,2.689l5.826,2.69v1.79l-7.736-3.809V17.867z M455.152,12.492h1.57l-3.475,12.21h-1.566L455.152,12.492z M457.732,21.342
		l5.938-2.69l-5.938-2.689v-1.795l7.73,3.699v1.571l-7.73,3.694V21.342z M440.25,18.794c0,3.59,1.348,6.503,3.586,8.632v6.605h7.061
		v-3.136c1.01,0.224,2.129,0.338,3.25,0.338c1.119,0,2.238-0.114,3.248-0.338v3.136h7.061v-6.497
		c2.242-2.129,3.584-5.042,3.584-8.627V7.031H440.25V18.794z M436.666,9.273h2.576v9.412h-2.576V9.273z M458.066,3.56
		c-1.344,0-2.461-1.124-2.461-2.467c0-1.344,1.117-2.467,2.461-2.467c1.346,0,2.467,1.123,2.467,2.467
		C460.533,2.436,459.412,3.56,458.066,3.56 M450.225,3.56c-1.346,0-2.467-1.124-2.467-2.467c0-1.344,1.121-2.467,2.467-2.467
		c1.344,0,2.467,1.123,2.467,2.467C452.691,2.436,451.682,3.56,450.225,3.56 M464.789,3.56c0-5.828-4.818-9.527-10.643-9.527
		c-5.826,0-10.645,3.699-10.645,9.527v1.789h21.285V3.56H464.789z"/>
</g>
<g id="Development" display="none">
	<path display="inline" fill="#1F1E21" d="M345.604,87.206h1.932c0.322,0,0.531-0.209,0.531-0.461s-0.209-0.461-0.531-0.461h-4.87
		c-0.321,0-0.532,0.209-0.532,0.461s0.21,0.461,0.532,0.461h1.933v8.484c0,0.42,0.182,0.645,0.504,0.645
		c0.32,0,0.502-0.225,0.502-0.645V87.206L345.604,87.206z M334.503,88.045h0.028l5.42,7.924c0.168,0.238,0.279,0.363,0.545,0.363
		c0.279,0,0.475-0.14,0.475-0.615v-8.875c0-0.42-0.181-0.643-0.502-0.643c-0.32,0-0.504,0.223-0.504,0.643v7.545h-0.027
		l-5.351-7.823c-0.14-0.196-0.308-0.364-0.587-0.364s-0.503,0.195-0.503,0.588v8.902c0,0.42,0.183,0.645,0.503,0.645
		c0.322,0,0.503-0.225,0.503-0.645V88.045L334.503,88.045z M328.423,91.743h2.786c0.322,0,0.532-0.211,0.532-0.462
		c0-0.252-0.21-0.461-0.532-0.461h-2.771v-3.614h2.897c0.322,0,0.532-0.209,0.532-0.461s-0.21-0.461-0.532-0.461h-3.303
		c-0.447,0-0.615,0.182-0.615,0.531v8.903c0,0.35,0.168,0.53,0.615,0.53h3.442c0.321,0,0.531-0.209,0.531-0.461
		s-0.21-0.461-0.531-0.461h-3.053L328.423,91.743L328.423,91.743z M320.464,94.583h-0.026l-2.213-7.726
		c-0.127-0.421-0.365-0.657-0.771-0.657c-0.448,0-0.924,0.139-1.021,0.783l-1.188,7.979c-0.042,0.252-0.141,0.783-0.141,0.91
		c0,0.377,0.266,0.461,0.476,0.461c0.362,0,0.476-0.237,0.53-0.602l1.248-8.414h0.027l2.562,8.498
		c0.098,0.309,0.209,0.518,0.504,0.518c0.308,0,0.447-0.168,0.602-0.672l2.492-8.371h0.027l1.246,8.441
		c0.057,0.363,0.168,0.602,0.531,0.602c0.209,0,0.476-0.084,0.476-0.461c0-0.127-0.099-0.658-0.14-0.91l-1.188-7.979
		c-0.099-0.644-0.574-0.782-1.021-0.782c-0.406,0-0.617,0.236-0.742,0.657L320.464,94.583z M309.42,87.206h1.85
		c1.597,0,2.24,1.147,2.24,2.157c0,1.009-0.645,2.156-2.24,2.156h-1.85V87.206z M309.42,92.442h1.766
		c2.297,0,3.332-1.511,3.332-3.163c0-1.233-0.812-2.995-3.08-2.995h-2.395c-0.477,0-0.629,0.194-0.629,0.531v8.875
		c0,0.42,0.182,0.645,0.503,0.645s0.503-0.225,0.503-0.645V92.442L309.42,92.442z M302.532,95.413c-2.339,0-3.136-2.271-3.136-4.146
		c0-1.877,0.797-4.145,3.136-4.145s3.137,2.268,3.137,4.145C305.668,93.142,304.871,95.413,302.532,95.413 M298.305,91.266
		c0,2.533,1.412,5.066,4.227,5.066c2.816,0,4.229-2.533,4.229-5.066c0-2.534-1.412-5.066-4.229-5.066
		C299.717,86.2,298.305,88.732,298.305,91.266 M294.934,86.843c0-0.421-0.183-0.644-0.504-0.644c-0.32,0-0.502,0.223-0.502,0.644
		v8.903c0,0.278,0.223,0.502,0.502,0.502h3.137c0.32,0,0.531-0.209,0.531-0.461s-0.211-0.461-0.531-0.461h-2.633V86.843z
		 M288.854,91.743h2.787c0.32,0,0.53-0.211,0.53-0.462c0-0.252-0.21-0.461-0.53-0.461h-2.772v-3.614h2.897
		c0.321,0,0.531-0.209,0.531-0.461s-0.21-0.461-0.531-0.461h-3.304c-0.446,0-0.614,0.182-0.614,0.531v8.903
		c0,0.35,0.168,0.53,0.614,0.53h3.442c0.322,0,0.533-0.209,0.533-0.461s-0.211-0.461-0.533-0.461h-3.051V91.743L288.854,91.743z
		 M282.895,94.667h-0.028l-2.744-8.047c-0.084-0.268-0.238-0.42-0.49-0.42c-0.308,0-0.504,0.194-0.504,0.475
		c0,0.113,0.058,0.322,0.196,0.701l2.953,8.342c0.099,0.279,0.253,0.615,0.603,0.615c0.351,0,0.503-0.336,0.603-0.615l2.953-8.342
		c0.141-0.379,0.195-0.588,0.195-0.701c0-0.279-0.195-0.475-0.504-0.475c-0.252,0-0.404,0.152-0.49,0.42L282.895,94.667z
		 M274.516,91.743h2.784c0.322,0,0.532-0.211,0.532-0.462c0-0.252-0.21-0.461-0.532-0.461h-2.771v-3.614h2.896
		c0.322,0,0.532-0.209,0.532-0.461s-0.21-0.461-0.532-0.461h-3.303c-0.447,0-0.615,0.182-0.615,0.531v8.903
		c0,0.35,0.168,0.53,0.615,0.53h3.443c0.322,0,0.531-0.209,0.531-0.461s-0.209-0.461-0.531-0.461h-3.053v-3.584H274.516z
		 M265.525,87.206h2.018c2.381,0,3.223,2.045,3.223,3.949c0,2.338-0.855,4.174-3.277,4.174h-1.961v-8.123H265.525z M264.52,95.718
		c0,0.35,0.168,0.53,0.614,0.53h2.408c2.423,0,4.312-1.846,4.312-4.912c0-2.325-1.201-5.053-4.228-5.053h-2.492
		c-0.446,0-0.614,0.18-0.614,0.53V95.718z M258.484,87.206h1.932c0.322,0,0.532-0.209,0.532-0.461s-0.21-0.461-0.532-0.461h-4.87
		c-0.321,0-0.53,0.209-0.53,0.461s0.209,0.461,0.53,0.461h1.933v8.484c0,0.42,0.183,0.645,0.504,0.645
		c0.32,0,0.502-0.225,0.502-0.645V87.206L258.484,87.206z M251.34,96.333c1.919,0,3.163-1.355,3.163-3.162
		c0-3.192-4.731-2.297-4.731-4.496c0-0.825,0.756-1.553,1.808-1.553c1.063,0,1.401,0.699,1.919,0.699
		c0.184,0,0.419-0.225,0.419-0.531c0-0.476-1.175-1.09-2.269-1.09c-1.514,0.041-2.883,0.936-2.883,2.545
		c0,3.024,4.731,2.102,4.731,4.495c0,1.052-0.896,2.171-2.297,2.171c-0.716,0-1.541-0.42-1.652-0.519
		c-0.11-0.099-0.362-0.237-0.476-0.237c-0.266,0-0.475,0.225-0.475,0.489C248.598,95.691,249.688,96.333,251.34,96.333
		 M243.88,91.743h2.786c0.322,0,0.531-0.211,0.531-0.462c0-0.252-0.209-0.461-0.531-0.461h-2.771v-3.614h2.897
		c0.321,0,0.532-0.209,0.532-0.461s-0.211-0.461-0.532-0.461h-3.304c-0.446,0-0.614,0.182-0.614,0.531v8.903
		c0,0.35,0.168,0.53,0.614,0.53h3.443c0.321,0,0.531-0.209,0.531-0.461s-0.21-0.461-0.531-0.461h-3.053L243.88,91.743L243.88,91.743
		z M239.256,87.206h1.934c0.32,0,0.531-0.209,0.531-0.461s-0.211-0.461-0.531-0.461h-4.871c-0.321,0-0.531,0.209-0.531,0.461
		s0.21,0.461,0.531,0.461h1.933v8.484c0,0.42,0.183,0.645,0.503,0.645c0.321,0,0.503-0.225,0.503-0.645L239.256,87.206
		L239.256,87.206z"/>
	<circle display="inline" fill="none" stroke="#636466" stroke-width="2" cx="291.926" cy="14.033" r="48.5"/>
	<path display="inline" fill="#69A33A" d="M282.941-1.743c0,2.339-1.896,4.232-4.233,4.232c-2.331,0-4.228-1.894-4.228-4.232
		c0-2.332,1.896-4.225,4.228-4.225C281.045-5.967,282.941-4.075,282.941-1.743"/>
	<path display="inline" fill="#69A33A" d="M309.371-1.743c0,2.339-1.895,4.232-4.225,4.232c-2.34,0-4.233-1.894-4.233-4.232
		c0-2.332,1.896-4.225,4.233-4.225C307.477-5.967,309.371-4.075,309.371-1.743"/>
	<path display="inline" fill="#69A33A" d="M309.371,20.825c0,2.329-1.895,4.225-4.225,4.225c-2.34,0-4.233-1.896-4.233-4.225
		c0-2.34,1.896-4.228,4.233-4.228C307.477,16.597,309.371,18.485,309.371,20.825"/>
	<path display="inline" fill="#69A33A" d="M282.941,20.825c0,2.329-1.896,4.225-4.233,4.225c-2.331,0-4.228-1.896-4.228-4.225
		c0-2.34,1.896-4.236,4.228-4.236C281.045,16.588,282.941,18.485,282.941,20.825"/>
	<path display="inline" fill="#69A33A" d="M310.872,8.417c0-3.033-2.565-5.5-5.726-5.5c-3.17,0-5.733,2.467-5.733,5.5v2.002
		l-3.32,3.547h-8.229l-3.422-3.639v-1.91c0-3.033-2.563-5.5-5.732-5.5c-3.162,0-5.727,2.467-5.727,5.5v3.061h10.261l2.817,3.009
		v6.631l-3.328,5.951c-1.033-0.98-2.457-1.592-4.023-1.592c-3.162,0-5.727,2.462-5.727,5.505v3.052h11.459v-3.052
		c0-0.888-0.234-1.71-0.619-2.446l3.964-7.1h8.384l3.923,7.008c-0.419,0.761-0.679,1.618-0.679,2.538v3.052h11.459v-3.052
		c0-3.043-2.564-5.505-5.725-5.505c-1.535,0-2.928,0.585-3.949,1.534l-3.655-6.53v-5.617l3.161-3.386h10.168L310.872,8.417
		L310.872,8.417z"/>
</g>
<g id="Management" display="none">
	<circle display="inline" fill="none" stroke="#636466" stroke-width="2" cx="132.17" cy="14.033" r="53.5"/>
	<path display="inline" fill="#1F1E21" d="M187.535,87.206h1.932c0.322,0,0.532-0.209,0.532-0.461s-0.21-0.461-0.532-0.461h-4.871
		c-0.322,0-0.531,0.209-0.531,0.461s0.209,0.461,0.531,0.461h1.932v8.484c0,0.42,0.184,0.645,0.506,0.645
		c0.32,0,0.503-0.225,0.503-0.645L187.535,87.206L187.535,87.206z M176.436,88.045h0.027l5.419,7.924
		c0.168,0.238,0.28,0.363,0.546,0.363c0.279,0,0.475-0.14,0.475-0.615v-8.875c0-0.42-0.182-0.643-0.502-0.643
		c-0.321,0-0.504,0.223-0.504,0.643v7.545h-0.027l-5.35-7.823c-0.141-0.196-0.309-0.364-0.588-0.364s-0.504,0.195-0.504,0.588v8.902
		c0,0.42,0.182,0.645,0.504,0.645c0.321,0,0.504-0.225,0.504-0.645V88.045L176.436,88.045z M170.355,91.743h2.785
		c0.322,0,0.532-0.211,0.532-0.462c0-0.252-0.21-0.461-0.532-0.461h-2.771v-3.614h2.897c0.321,0,0.531-0.209,0.531-0.461
		s-0.21-0.461-0.531-0.461h-3.305c-0.447,0-0.615,0.182-0.615,0.531v8.903c0,0.35,0.168,0.53,0.615,0.53h3.443
		c0.322,0,0.533-0.209,0.533-0.461s-0.211-0.461-0.533-0.461h-3.051V91.743L170.355,91.743z M162.395,94.583h-0.026l-2.214-7.726
		c-0.125-0.421-0.362-0.657-0.77-0.657c-0.449,0-0.925,0.139-1.023,0.783l-1.188,7.979c-0.042,0.252-0.141,0.783-0.141,0.91
		c0,0.377,0.267,0.461,0.476,0.461c0.364,0,0.476-0.237,0.531-0.602l1.247-8.414h0.029l2.562,8.498
		c0.099,0.309,0.21,0.518,0.504,0.518c0.308,0,0.448-0.168,0.603-0.672l2.492-8.371h0.027l1.246,8.441
		c0.057,0.363,0.168,0.602,0.531,0.602c0.209,0,0.475-0.084,0.475-0.461c0-0.127-0.098-0.658-0.139-0.91l-1.189-7.979
		c-0.098-0.644-0.574-0.782-1.021-0.782c-0.406,0-0.616,0.236-0.742,0.657L162.395,94.583z M152.184,91.743h2.787
		c0.321,0,0.531-0.211,0.531-0.462c0-0.252-0.21-0.461-0.531-0.461h-2.773v-3.614h2.898c0.322,0,0.532-0.209,0.532-0.461
		s-0.21-0.461-0.532-0.461h-3.303c-0.447,0-0.615,0.182-0.615,0.531v8.903c0,0.35,0.168,0.53,0.615,0.53h3.443
		c0.32,0,0.531-0.209,0.531-0.461s-0.211-0.461-0.531-0.461h-3.053V91.743L152.184,91.743z M146.885,90.637
		c-0.322,0-0.532,0.209-0.532,0.461c0,0.251,0.21,0.461,0.532,0.461h1.766c0,2.003-0.798,3.854-2.969,3.854
		c-2.282,0-3.36-1.893-3.36-4.146c0-1.918,0.979-4.145,3.305-4.145c1.708,0,2.395,1.135,2.857,1.135c0.251,0,0.488-0.17,0.488-0.533
		c0-0.42-1.441-1.523-3.402-1.523c-2.94,0-4.338,2.59-4.338,5.066c0,2.562,1.258,5.066,4.366,5.066c2.185,0,4.06-1.062,4.06-4.928
		c0-0.404-0.154-0.769-0.854-0.769L146.885,90.637L146.885,90.637z M138.712,93.159h-4.172l2.071-5.646h0.028L138.712,93.159z
		 M134.204,94.081h4.844l0.658,1.791c0.098,0.252,0.21,0.463,0.56,0.463c0.294,0,0.448-0.183,0.448-0.393
		c0-0.111-0.042-0.279-0.098-0.42l-3.205-8.595c-0.127-0.321-0.28-0.728-0.784-0.728c-0.505,0-0.658,0.405-0.784,0.728l-3.206,8.595
		c-0.056,0.141-0.099,0.309-0.099,0.42c0,0.21,0.154,0.393,0.449,0.393c0.35,0,0.434-0.211,0.56-0.463L134.204,94.081z
		 M124.819,88.045h0.028l5.42,7.924c0.167,0.238,0.279,0.363,0.545,0.363c0.279,0,0.475-0.14,0.475-0.615v-8.875
		c0-0.42-0.182-0.643-0.503-0.643c-0.322,0-0.503,0.223-0.503,0.643v7.545h-0.028l-5.35-7.823c-0.14-0.196-0.308-0.364-0.587-0.364
		c-0.28,0-0.503,0.195-0.503,0.588v8.902c0,0.42,0.181,0.645,0.503,0.645c0.321,0,0.503-0.225,0.503-0.645V88.045z M120.559,93.159
		h-4.172l2.072-5.646h0.028L120.559,93.159z M116.052,94.081h4.843l0.658,1.791c0.098,0.252,0.21,0.463,0.56,0.463
		c0.294,0,0.448-0.183,0.448-0.393c0-0.111-0.042-0.279-0.098-0.42l-3.205-8.595c-0.126-0.321-0.281-0.728-0.785-0.728
		c-0.504,0-0.657,0.405-0.784,0.728l-3.205,8.595c-0.056,0.141-0.098,0.309-0.098,0.42c0,0.21,0.154,0.393,0.448,0.393
		c0.349,0,0.433-0.211,0.56-0.463L116.052,94.081z M107.989,94.583h-0.028l-2.213-7.726c-0.126-0.421-0.364-0.657-0.771-0.657
		c-0.448,0-0.924,0.139-1.022,0.783l-1.188,7.979c-0.042,0.252-0.14,0.783-0.14,0.91c0,0.377,0.265,0.461,0.475,0.461
		c0.363,0,0.475-0.237,0.531-0.602l1.248-8.414h0.028l2.562,8.498c0.098,0.309,0.21,0.518,0.504,0.518
		c0.308,0,0.448-0.168,0.602-0.672l2.492-8.371h0.028l1.246,8.441c0.056,0.363,0.167,0.602,0.531,0.602
		c0.209,0,0.475-0.084,0.475-0.461c0-0.127-0.098-0.658-0.14-0.91l-1.188-7.979c-0.098-0.644-0.574-0.782-1.022-0.782
		c-0.406,0-0.616,0.236-0.742,0.657L107.989,94.583z M97.041,87.206h1.932c0.322,0,0.532-0.209,0.532-0.461s-0.21-0.461-0.532-0.461
		h-4.87c-0.322,0-0.532,0.209-0.532,0.461s0.21,0.461,0.532,0.461h1.932v8.484c0,0.42,0.182,0.645,0.503,0.645
		c0.322,0,0.503-0.225,0.503-0.645V87.206z M89.897,96.333c1.919,0,3.163-1.355,3.163-3.162c0-3.192-4.732-2.297-4.732-4.496
		c0-0.825,0.756-1.553,1.807-1.553c1.064,0,1.401,0.699,1.919,0.699c0.182,0,0.419-0.225,0.419-0.531c0-0.476-1.175-1.09-2.268-1.09
		c-1.513,0.041-2.883,0.936-2.883,2.545c0,3.024,4.732,2.102,4.732,4.495c0,1.052-0.897,2.171-2.297,2.171
		c-0.715,0-1.541-0.42-1.652-0.519c-0.112-0.099-0.364-0.237-0.476-0.237c-0.265,0-0.475,0.225-0.475,0.489
		C87.154,95.691,88.244,96.333,89.897,96.333 M82.438,91.743h2.786c0.322,0,0.532-0.211,0.532-0.462c0-0.252-0.21-0.461-0.532-0.461
		h-2.772v-3.614h2.898c0.322,0,0.532-0.209,0.532-0.461s-0.21-0.461-0.532-0.461h-3.303c-0.447,0-0.615,0.182-0.615,0.531v8.903
		c0,0.35,0.168,0.53,0.615,0.53h3.443c0.322,0,0.532-0.209,0.532-0.461s-0.21-0.461-0.532-0.461h-3.052V91.743z M77.813,87.206
		h1.932c0.322,0,0.532-0.209,0.532-0.461s-0.21-0.461-0.532-0.461h-4.87c-0.322,0-0.532,0.209-0.532,0.461s0.21,0.461,0.532,0.461
		h1.932v8.484c0,0.42,0.181,0.645,0.503,0.645c0.321,0,0.503-0.225,0.503-0.645V87.206z"/>
	<path display="inline" fill="#69A33A" d="M150.559,24.034h-13.137v-2.5h13.137V24.034z M126.917-3.467h13.132v2.5h-13.132V-3.467z
		 M126.917,24.034h-13.134v-2.5h13.134V24.034z M145.305,19.034v-5.001v-2.499h-10.508V9.033h7.881v-2.5V-5.966h-15.761h-2.626
		V9.033h7.879v2.501h-13.135v2.499v5.001h-5.253h-2.627v15h18.388v-2.5v-12.5h-7.882v-5.001h21.016v5.001h-5.256h-2.625v15h18.388
		v-2.5v-12.5H145.305z"/>
</g>
<g id="Tablet_App" display="none">
	<path display="inline" fill="#1F1E21" d="M37.081,88.045h0.028l5.42,7.924c0.168,0.238,0.28,0.363,0.545,0.363
		c0.28,0,0.475-0.14,0.475-0.615v-8.875c0-0.42-0.181-0.643-0.503-0.643c-0.321,0-0.503,0.223-0.503,0.643v7.545h-0.028l-5.35-7.823
		c-0.14-0.196-0.307-0.364-0.587-0.364c-0.279,0-0.503,0.195-0.503,0.588v8.902c0,0.42,0.182,0.645,0.503,0.645
		c0.322,0,0.503-0.225,0.503-0.645V88.045z M30.193,95.413c-2.339,0-3.137-2.271-3.137-4.146c0-1.877,0.798-4.145,3.137-4.145
		c2.338,0,3.137,2.268,3.137,4.145C33.33,93.142,32.531,95.413,30.193,95.413 M25.966,91.266c0,2.533,1.412,5.066,4.227,5.066
		s4.227-2.533,4.227-5.066c0-2.534-1.412-5.066-4.227-5.066S25.966,88.732,25.966,91.266 M24.339,86.843
		c0-0.421-0.182-0.644-0.504-0.644c-0.321,0-0.503,0.223-0.503,0.644v8.847c0,0.42,0.182,0.645,0.503,0.645
		c0.322,0,0.504-0.225,0.504-0.645V86.843z M19.714,87.206h1.932c0.322,0,0.532-0.209,0.532-0.461s-0.21-0.461-0.532-0.461h-4.87
		c-0.322,0-0.532,0.209-0.532,0.461s0.21,0.461,0.532,0.461h1.932v8.484c0,0.42,0.182,0.645,0.503,0.645
		c0.322,0,0.503-0.225,0.503-0.645V87.206z M14.688,93.159h-4.172l2.072-5.646h0.028L14.688,93.159z M10.18,94.081h4.843
		l0.658,1.791c0.098,0.252,0.21,0.463,0.56,0.463c0.294,0,0.448-0.183,0.448-0.393c0-0.111-0.042-0.279-0.098-0.42l-3.205-8.595
		c-0.126-0.321-0.28-0.728-0.784-0.728s-0.658,0.405-0.784,0.728l-3.206,8.595c-0.056,0.141-0.098,0.309-0.098,0.42
		c0,0.21,0.154,0.393,0.448,0.393c0.35,0,0.434-0.211,0.56-0.463L10.18,94.081z M4.504,86.2c-2.94,0-4.339,2.588-4.339,5.207
		c0,2.66,1.399,4.928,4.451,4.928c1.834,0,3.122-0.965,3.122-1.398c0-0.35-0.168-0.504-0.42-0.504c-0.364,0-0.896,0.98-2.646,0.98
		c-2.408,0-3.416-1.947-3.416-4.006c0-2.031,1.134-4.285,3.234-4.285c1.652,0,2.17,1.105,2.59,1.105c0.21,0,0.448-0.182,0.448-0.531
		C7.528,87.206,6.184,86.2,4.504,86.2 M-1.488,86.843c0-0.421-0.182-0.644-0.503-0.644c-0.322,0-0.504,0.223-0.504,0.644v8.847
		c0,0.42,0.182,0.645,0.504,0.645c0.321,0,0.503-0.225,0.503-0.645V86.843z M-6.84,86.843c0-0.421-0.182-0.644-0.503-0.644
		c-0.322,0-0.504,0.223-0.504,0.644v8.903c0,0.278,0.224,0.502,0.504,0.502h3.135c0.322,0,0.532-0.209,0.532-0.461
		s-0.21-0.461-0.532-0.461H-6.84V86.843z M-14.209,87.206h1.849c1.597,0,2.241,1.147,2.241,2.157c0,1.009-0.644,2.156-2.241,2.156
		h-1.849V87.206z M-14.209,92.442h1.765c2.297,0,3.331-1.511,3.331-3.163c0-1.233-0.81-2.995-3.079-2.995h-2.394
		c-0.475,0-0.629,0.194-0.629,0.531v8.875c0,0.42,0.182,0.645,0.503,0.645c0.322,0,0.503-0.225,0.503-0.645V92.442z M-21.577,87.206
		h1.849c1.597,0,2.241,1.147,2.241,2.157c0,1.009-0.644,2.156-2.241,2.156h-1.849V87.206z M-21.577,92.442h1.765
		c2.297,0,3.331-1.511,3.331-3.163c0-1.233-0.81-2.995-3.079-2.995h-2.394c-0.475,0-0.629,0.194-0.629,0.531v8.875
		c0,0.42,0.182,0.645,0.503,0.645c0.322,0,0.503-0.225,0.503-0.645V92.442z M-25.836,93.159h-4.172l2.072-5.646h0.028
		L-25.836,93.159z M-30.343,94.081h4.842l0.658,1.791c0.098,0.252,0.21,0.463,0.56,0.463c0.294,0,0.448-0.183,0.448-0.393
		c0-0.111-0.042-0.279-0.098-0.42l-3.205-8.595c-0.126-0.321-0.28-0.728-0.784-0.728s-0.658,0.405-0.784,0.728l-3.206,8.595
		c-0.056,0.141-0.098,0.309-0.098,0.42c0,0.21,0.154,0.393,0.448,0.393c0.35,0,0.434-0.211,0.56-0.463L-30.343,94.081z
		 M-37.317,87.206h1.932c0.322,0,0.532-0.209,0.532-0.461s-0.21-0.461-0.532-0.461h-4.87c-0.322,0-0.532,0.209-0.532,0.461
		s0.21,0.461,0.532,0.461h1.932v8.484c0,0.42,0.182,0.645,0.503,0.645c0.322,0,0.503-0.225,0.503-0.645V87.206z M-45.337,91.743
		h2.786c0.322,0,0.532-0.211,0.532-0.462c0-0.252-0.21-0.461-0.532-0.461h-2.772v-3.614h2.898c0.322,0,0.532-0.209,0.532-0.461
		s-0.21-0.461-0.532-0.461h-3.303c-0.448,0-0.615,0.182-0.615,0.531v8.903c0,0.35,0.167,0.53,0.615,0.53h3.443
		c0.322,0,0.532-0.209,0.532-0.461s-0.21-0.461-0.532-0.461h-3.052V91.743z M-50.689,86.843c0-0.421-0.182-0.644-0.503-0.644
		c-0.322,0-0.503,0.223-0.503,0.644v8.903c0,0.278,0.223,0.502,0.503,0.502h3.135c0.322,0,0.532-0.209,0.532-0.461
		s-0.21-0.461-0.532-0.461h-2.632V86.843z M-58.362,91.391h1.778c1.373,0,2.283,0.812,2.283,1.977c0,1.287-0.854,1.961-2.269,1.961
		h-1.792V91.391z M-58.362,87.206h1.498c1.177,0,1.793,0.799,1.793,1.611c0,1.008-0.784,1.736-1.821,1.736h-1.47V87.206z
		 M-59.369,95.718c0,0.35,0.168,0.53,0.615,0.53h2.296c2.199,0,3.164-1.355,3.164-2.854c0-1.414-0.811-2.281-2.183-2.506v-0.027
		c0.854-0.35,1.413-0.909,1.413-2.086c0-1.121-0.713-2.491-2.884-2.491h-1.806c-0.447,0-0.615,0.182-0.615,0.531V95.718z
		 M-62.622,93.159h-4.172l2.072-5.646h0.028L-62.622,93.159z M-67.129,94.081h4.843l0.658,1.791c0.098,0.252,0.21,0.463,0.559,0.463
		c0.294,0,0.448-0.183,0.448-0.393c0-0.111-0.042-0.279-0.098-0.42l-3.205-8.595c-0.126-0.321-0.28-0.728-0.784-0.728
		s-0.658,0.405-0.784,0.728l-3.206,8.595c-0.056,0.141-0.098,0.309-0.098,0.42c0,0.21,0.154,0.393,0.448,0.393
		c0.35,0,0.434-0.211,0.56-0.463L-67.129,94.081z M-70.8,87.206h1.932c0.322,0,0.532-0.209,0.532-0.461s-0.21-0.461-0.532-0.461
		h-4.87c-0.322,0-0.532,0.209-0.532,0.461s0.21,0.461,0.532,0.461h1.932v8.484c0,0.42,0.181,0.645,0.503,0.645
		c0.321,0,0.503-0.225,0.503-0.645V87.206z M-79.396,87.206h1.932c0.322,0,0.532-0.209,0.532-0.461s-0.21-0.461-0.532-0.461h-4.87
		c-0.322,0-0.532,0.209-0.532,0.461s0.21,0.461,0.532,0.461h1.932v8.484c0,0.42,0.182,0.645,0.503,0.645
		c0.321,0,0.503-0.225,0.503-0.645V87.206z M-86.539,96.333c1.919,0,3.163-1.355,3.163-3.162c0-3.192-4.732-2.297-4.732-4.496
		c0-0.825,0.756-1.553,1.807-1.553c1.064,0,1.401,0.699,1.919,0.699c0.182,0,0.419-0.225,0.419-0.531c0-0.476-1.175-1.09-2.268-1.09
		c-1.513,0.041-2.883,0.936-2.883,2.545c0,3.024,4.732,2.102,4.732,4.495c0,1.052-0.897,2.171-2.297,2.171
		c-0.715,0-1.541-0.42-1.652-0.519c-0.112-0.099-0.364-0.237-0.476-0.237c-0.265,0-0.475,0.225-0.475,0.489
		C-89.282,95.691-88.192,96.333-86.539,96.333 M-93.999,91.743h2.786c0.322,0,0.532-0.211,0.532-0.462
		c0-0.252-0.21-0.461-0.532-0.461h-2.772v-3.614h2.898c0.322,0,0.532-0.209,0.532-0.461s-0.21-0.461-0.532-0.461h-3.303
		c-0.447,0-0.615,0.182-0.615,0.531v8.903c0,0.35,0.168,0.53,0.615,0.53h3.443c0.322,0,0.532-0.209,0.532-0.461
		s-0.21-0.461-0.532-0.461h-3.052V91.743z M-98.623,87.206h1.932c0.322,0,0.532-0.209,0.532-0.461s-0.21-0.461-0.532-0.461h-4.87
		c-0.322,0-0.532,0.209-0.532,0.461s0.21,0.461,0.532,0.461h1.932v8.484c0,0.42,0.181,0.645,0.503,0.645
		c0.321,0,0.503-0.225,0.503-0.645V87.206z"/>
	<circle display="inline" fill="none" stroke="#636466" stroke-width="2" cx="-28.817" cy="14.033" r="48.5"/>
	<path display="inline" fill="#69A33A" d="M-41.792-0.967h25.951v26.419h-25.951V-0.967z M-11.044,34.034v-10V-5.967h-35.545v40
		h2.399H-11.044z"/>
	<path display="inline" fill="#FFFFFF" d="M-28.817,32.162c1.105,0,2-0.895,2-2c0-1.104-0.895-2-2-2s-2,0.896-2,2
		C-30.817,31.267-29.922,32.162-28.817,32.162"/>
	<rect x="-37.73" y="3.181" display="inline" fill="#69A33A" width="5.209" height="5.209"/>
	<rect x="-31.421" y="3.181" display="inline" fill="#69A33A" width="5.209" height="5.209"/>
	<rect x="-25.113" y="3.181" display="inline" fill="#69A33A" width="5.209" height="5.209"/>
	<rect x="-37.73" y="9.182" display="inline" fill="#69A33A" width="5.209" height="5.209"/>
	<rect x="-31.421" y="9.182" display="inline" fill="#69A33A" width="5.209" height="5.209"/>
	<rect x="-25.113" y="9.182" display="inline" fill="#69A33A" width="5.209" height="5.209"/>
	<rect x="-37.73" y="15.184" display="inline" fill="#69A33A" width="5.209" height="5.209"/>
	<rect x="-31.421" y="15.184" display="inline" fill="#69A33A" width="5.209" height="5.209"/>
	<rect x="-25.113" y="15.184" display="inline" fill="#69A33A" width="5.209" height="5.209"/>
</g>
<g id="Certification" display="none">
	<circle display="inline" fill="none" stroke="#636466" stroke-width="2" cx="-191.273" cy="14.033" r="48.5"/>
	<path display="inline" fill="#1F1E21" d="M-141.099,88.045h0.028l5.42,7.924c0.168,0.238,0.28,0.363,0.545,0.363
		c0.28,0,0.475-0.14,0.475-0.615v-8.875c0-0.42-0.181-0.643-0.503-0.643c-0.321,0-0.503,0.223-0.503,0.643v7.545h-0.028l-5.35-7.823
		c-0.14-0.196-0.307-0.364-0.587-0.364c-0.279,0-0.503,0.195-0.503,0.588v8.902c0,0.42,0.182,0.645,0.503,0.645
		c0.322,0,0.503-0.225,0.503-0.645V88.045L-141.099,88.045z M-147.987,95.413c-2.339,0-3.137-2.271-3.137-4.146
		c0-1.877,0.798-4.145,3.137-4.145c2.339,0,3.137,2.268,3.137,4.145C-144.85,93.142-145.648,95.413-147.987,95.413 M-152.214,91.266
		c0,2.533,1.412,5.066,4.227,5.066c2.815,0,4.227-2.533,4.227-5.066c0-2.534-1.412-5.066-4.227-5.066
		C-150.802,86.2-152.214,88.732-152.214,91.266 M-153.841,86.843c0-0.421-0.182-0.644-0.503-0.644c-0.322,0-0.504,0.223-0.504,0.644
		v8.847c0,0.42,0.182,0.645,0.504,0.645c0.321,0,0.503-0.225,0.503-0.645V86.843z M-158.465,87.206h1.932
		c0.322,0,0.532-0.209,0.532-0.461s-0.21-0.461-0.532-0.461h-4.871c-0.322,0-0.532,0.209-0.532,0.461s0.21,0.461,0.532,0.461h1.932
		v8.484c0,0.42,0.182,0.645,0.503,0.645c0.322,0,0.504-0.225,0.504-0.645V87.206L-158.465,87.206z M-163.492,93.159h-4.172
		l2.072-5.646h0.028L-163.492,93.159z M-167.999,94.081h4.843l0.657,1.791c0.098,0.252,0.21,0.463,0.56,0.463
		c0.294,0,0.448-0.183,0.448-0.393c0-0.111-0.042-0.279-0.098-0.42l-3.205-8.595c-0.126-0.321-0.28-0.728-0.784-0.728
		s-0.658,0.405-0.784,0.728l-3.206,8.595c-0.056,0.141-0.098,0.309-0.098,0.42c0,0.21,0.154,0.393,0.448,0.393
		c0.35,0,0.434-0.211,0.56-0.463L-167.999,94.081z M-173.676,86.2c-2.94,0-4.339,2.588-4.339,5.207c0,2.66,1.399,4.928,4.451,4.928
		c1.834,0,3.122-0.965,3.122-1.398c0-0.35-0.168-0.504-0.42-0.504c-0.364,0-0.896,0.98-2.646,0.98c-2.408,0-3.416-1.947-3.416-4.006
		c0-2.031,1.134-4.285,3.234-4.285c1.652,0,2.17,1.105,2.59,1.105c0.21,0,0.448-0.182,0.448-0.531
		C-170.652,87.206-171.996,86.2-173.676,86.2 M-179.668,86.843c0-0.421-0.182-0.644-0.503-0.644c-0.322,0-0.503,0.223-0.503,0.644
		v8.847c0,0.42,0.181,0.645,0.503,0.645c0.321,0,0.503-0.225,0.503-0.645V86.843z M-185.482,91.743h2.688
		c0.322,0,0.532-0.211,0.532-0.462c0-0.252-0.21-0.461-0.532-0.461h-2.688v-3.614h3.038c0.322,0,0.532-0.209,0.532-0.461
		s-0.21-0.461-0.532-0.461h-3.541c-0.28,0.014-0.504,0.223-0.504,0.504v8.902c0,0.42,0.182,0.645,0.504,0.645
		c0.321,0,0.503-0.225,0.503-0.645V91.743z M-188.55,86.843c0-0.421-0.181-0.644-0.503-0.644c-0.321,0-0.503,0.223-0.503,0.644
		v8.847c0,0.42,0.182,0.645,0.503,0.645c0.322,0,0.503-0.225,0.503-0.645V86.843z M-193.174,87.206h1.932
		c0.322,0,0.532-0.209,0.532-0.461s-0.21-0.461-0.532-0.461h-4.87c-0.322,0-0.532,0.209-0.532,0.461s0.21,0.461,0.532,0.461h1.932
		v8.484c0,0.42,0.182,0.645,0.503,0.645c0.322,0,0.503-0.225,0.503-0.645V87.206L-193.174,87.206z M-202.068,87.206h1.751
		c1.358,0,2.073,0.658,2.073,1.961c0,1.177-0.757,1.793-2.073,1.793h-1.751V87.206z M-202.068,91.827l3.991,4.283
		c0.154,0.168,0.28,0.225,0.448,0.225c0.223,0,0.447-0.168,0.447-0.42c0-0.197-0.042-0.281-0.196-0.435l-3.443-3.683h0.924
		c1.597,0,2.659-1.217,2.659-2.812c0-1.388-1.048-2.701-3.009-2.701h-2.198c-0.475,0-0.629,0.194-0.629,0.531v8.875
		c0,0.42,0.181,0.645,0.503,0.645c0.321,0,0.503-0.225,0.503-0.645V91.827L-202.068,91.827z M-208.148,91.743h2.786
		c0.322,0,0.532-0.211,0.532-0.462c0-0.252-0.21-0.461-0.532-0.461h-2.772v-3.614h2.898c0.322,0,0.532-0.209,0.532-0.461
		s-0.21-0.461-0.532-0.461h-3.303c-0.448,0-0.615,0.182-0.615,0.531v8.903c0,0.35,0.167,0.53,0.615,0.53h3.443
		c0.322,0,0.532-0.209,0.532-0.461s-0.21-0.461-0.532-0.461h-3.052V91.743L-208.148,91.743z M-213.626,86.2
		c-2.94,0-4.338,2.588-4.338,5.207c0,2.66,1.398,4.928,4.45,4.928c1.834,0,3.122-0.965,3.122-1.398c0-0.35-0.168-0.504-0.42-0.504
		c-0.364,0-0.896,0.98-2.646,0.98c-2.408,0-3.416-1.947-3.416-4.006c0-2.031,1.134-4.285,3.234-4.285c1.652,0,2.17,1.105,2.59,1.105
		c0.21,0,0.448-0.182,0.448-0.531C-210.602,87.206-211.946,86.2-213.626,86.2 M-223.636,87.206h1.932
		c0.322,0,0.532-0.209,0.532-0.461s-0.21-0.461-0.532-0.461h-4.87c-0.322,0-0.532,0.209-0.532,0.461s0.21,0.461,0.532,0.461h1.932
		v8.484c0,0.42,0.182,0.645,0.503,0.645c0.322,0,0.503-0.225,0.503-0.645L-223.636,87.206L-223.636,87.206z M-230.779,96.333
		c1.919,0,3.163-1.355,3.163-3.162c0-3.192-4.732-2.297-4.732-4.496c0-0.825,0.756-1.553,1.807-1.553
		c1.064,0,1.401,0.699,1.919,0.699c0.182,0,0.419-0.225,0.419-0.531c0-0.476-1.175-1.09-2.268-1.09
		c-1.513,0.041-2.883,0.936-2.883,2.545c0,3.024,4.732,2.102,4.732,4.495c0,1.052-0.897,2.171-2.297,2.171
		c-0.715,0-1.541-0.42-1.652-0.519c-0.112-0.099-0.364-0.237-0.476-0.237c-0.265,0-0.475,0.225-0.475,0.489
		C-233.522,95.691-232.432,96.333-230.779,96.333 M-238.239,91.743h2.786c0.322,0,0.532-0.211,0.532-0.462
		c0-0.252-0.21-0.461-0.532-0.461h-2.772v-3.614h2.898c0.322,0,0.532-0.209,0.532-0.461s-0.21-0.461-0.532-0.461h-3.303
		c-0.447,0-0.615,0.182-0.615,0.531v8.903c0,0.35,0.168,0.53,0.615,0.53h3.443c0.322,0,0.532-0.209,0.532-0.461
		s-0.21-0.461-0.532-0.461h-3.052V91.743L-238.239,91.743z M-242.863,87.206h1.932c0.322,0,0.532-0.209,0.532-0.461
		s-0.21-0.461-0.532-0.461h-4.87c-0.322,0-0.532,0.209-0.532,0.461s0.21,0.461,0.532,0.461h1.932v8.484
		c0,0.42,0.181,0.645,0.503,0.645c0.321,0,0.503-0.225,0.503-0.645V87.206L-242.863,87.206z"/>
	<path display="inline" fill="#69A33A" d="M-191.273,20.833c-6.173,0-11.197-5.024-11.197-11.197
		c0-6.172,5.024-11.196,11.197-11.196s11.197,5.024,11.197,11.196C-180.076,15.808-185.101,20.833-191.273,20.833 M-175.278,9.635
		c0-1.074-0.114-2.118-0.315-3.132l2.575-2.799l-3.769-0.761c-0.885-1.905-2.125-3.6-3.648-5.009l0.444-3.829l-3.531,1.617
		c-1.773-0.989-3.737-1.639-5.842-1.889l-1.909-3.394l-1.908,3.394c-2.106,0.25-4.07,0.899-5.843,1.889l-3.531-1.617l0.444,3.829
		c-1.523,1.409-2.765,3.104-3.648,5.009l-3.769,0.761l2.575,2.799c-0.201,1.014-0.315,2.058-0.315,3.132
		c0,1.075,0.114,2.119,0.315,3.133l-2.575,2.799l3.769,0.761c0.883,1.905,2.125,3.599,3.648,5.009l0.521,0.457l-2.479,19.832
		l12.796-12.794l12.796,12.794l-2.479-19.832l0.521-0.457c1.523-1.41,2.763-3.104,3.648-5.009l3.769-0.761l-2.575-2.799
		C-175.393,11.754-175.278,10.71-175.278,9.635"/>
</g>
<g id="Layer_6">
	<g>
		<polygon fill="#FFFFFF" points="58.713,8.223 69.128,8.223 69.128,44.723 85.214,44.723 85.214,53.76 58.713,53.76 		"/>
		<path fill="#FFFFFF" d="M97.263,37.829c0,5.517,3.37,9.114,8.579,9.114c5.055,0,8.425-3.829,8.425-9.42
			c0-5.593-3.37-9.191-8.579-9.191C100.709,28.332,97.263,32.236,97.263,37.829 M113.578,50.312
			c-3.063,3.296-5.821,4.521-10.57,4.521c-9.421,0-15.778-6.816-15.778-16.927c0-10.34,6.357-17.386,15.702-17.386
			c4.595,0,7.506,1.224,10.799,4.672v-3.677h9.268V53.76h-9.42L113.578,50.312L113.578,50.312z"/>
		<path fill="#FFFFFF" d="M135.607,37.829c0,5.438,3.524,9.114,8.656,9.114c4.978,0,8.348-3.599,8.348-9.114
			c0-5.515-3.522-9.497-8.502-9.497C139.131,28.332,135.607,32.314,135.607,37.829 M127.028,8.223h9.575v16.278
			c3.217-2.835,6.28-3.981,10.341-3.981c9.343,0,15.701,7.123,15.701,17.539c0,10.188-6.127,16.773-15.701,16.773
			c-4.75,0-7.507-1.147-10.878-4.672v3.601h-9.038V8.223z"/>
		<path fill="#FFFFFF" d="M175.958,37.829c0,5.517,3.37,9.114,8.579,9.114c5.055,0,8.425-3.829,8.425-9.42
			c0-5.593-3.37-9.191-8.579-9.191C179.404,28.332,175.958,32.236,175.958,37.829 M192.273,50.312
			c-3.063,3.296-5.82,4.521-10.57,4.521c-9.421,0-15.778-6.816-15.778-16.927c0-10.34,6.357-17.386,15.702-17.386
			c4.596,0,7.506,1.224,10.799,4.672v-3.677h9.27V53.76h-9.42v-3.448H192.273z"/>
		<polygon fill="#FFFFFF" points="205.829,21.515 210.424,21.515 210.424,11.096 219.999,11.096 219.999,21.515 225.284,21.515 
			225.284,29.328 219.999,29.328 219.999,53.758 210.424,53.758 210.424,29.328 205.829,29.328 		"/>
		<path fill="#FFFFFF" d="M259.672,40.663c0,9.728-4.979,14.553-15.089,14.553c-6.127,0-11.183-2.146-13.479-5.742
			c-1.226-1.915-1.914-4.826-1.914-8.504V21.515h9.574V39.82c0,5.058,1.684,7.123,5.666,7.123c4.059,0,5.67-2.065,5.67-7.274V21.515
			h9.572V40.663z"/>
		<path fill="#FFFFFF" d="M271.207,43.497c1.534,3.141,2.988,4.366,5.287,4.366c1.99,0,3.445-1.149,3.445-2.834
			c0-1.839-0.766-2.374-6.434-4.521c-6.664-2.603-8.732-4.979-8.732-9.879c0-6.356,5.209-10.799,12.639-10.799
			c6.128,0,9.958,2.374,12.255,7.506l-7.431,3.751c-1.531-2.989-2.758-3.984-4.9-3.984c-1.839,0-3.062,1.072-3.062,2.682
			c0,1.838,1.07,2.604,5.514,4.059c7.047,2.299,9.805,5.285,9.805,10.572c0,6.584-4.979,10.873-12.791,10.873
			c-6.281,0-10.418-2.449-13.098-7.733L271.207,43.497z"/>
		<g>
			<polygon fill="#A8E466" points="20.382,41.395 6.21,55.292 6.21,37.811 20.348,22.525 			"/>
			<polygon fill="#6ED200" points="6.202,8.224 6.202,27.186 34.271,55.292 34.271,36.422 			"/>
			<polygon fill="#C5ED99" points="34.271,36.422 34.271,55.292 48.297,40.234 48.294,22.547 			"/>
		</g>
	</g>
</g>
</svg>
