<svg xmlns="http://www.w3.org/2000/svg" viewBox="0 0 296 63.333"><g id="Layer_6">
	<g>
		<polygon fill="#FFFFFF" points="58.713,8.223 69.128,8.223 69.128,44.723 85.214,44.723 85.214,53.76 58.713,53.76 		"/>
		<path fill="#FFFFFF" d="M97.263,37.829c0,5.517,3.37,9.114,8.579,9.114c5.055,0,8.425-3.829,8.425-9.42
			c0-5.593-3.37-9.191-8.579-9.191C100.709,28.332,97.263,32.236,97.263,37.829 M113.578,50.312
			c-3.063,3.296-5.821,4.521-10.57,4.521c-9.421,0-15.778-6.816-15.778-16.927c0-10.34,6.357-17.386,15.702-17.386
			c4.595,0,7.506,1.224,10.799,4.672v-3.677h9.268V53.76h-9.42L113.578,50.312L113.578,50.312z"/>
		<path fill="#FFFFFF" d="M135.607,37.829c0,5.438,3.524,9.114,8.656,9.114c4.978,0,8.348-3.599,8.348-9.114
			c0-5.515-3.522-9.497-8.502-9.497C139.131,28.332,135.607,32.314,135.607,37.829 M127.028,8.223h9.575v16.278
			c3.217-2.835,6.28-3.981,10.341-3.981c9.343,0,15.701,7.123,15.701,17.539c0,10.188-6.127,16.773-15.701,16.773
			c-4.75,0-7.507-1.147-10.878-4.672v3.601h-9.038V8.223z"/>
		<path fill="#FFFFFF" d="M175.958,37.829c0,5.517,3.37,9.114,8.579,9.114c5.055,0,8.425-3.829,8.425-9.42
			c0-5.593-3.37-9.191-8.579-9.191C179.404,28.332,175.958,32.236,175.958,37.829 M192.273,50.312
			c-3.063,3.296-5.82,4.521-10.57,4.521c-9.421,0-15.778-6.816-15.778-16.927c0-10.34,6.357-17.386,15.702-17.386
			c4.596,0,7.506,1.224,10.799,4.672v-3.677h9.27V53.76h-9.42v-3.448H192.273z"/>
		<polygon fill="#FFFFFF" points="205.829,21.515 210.424,21.515 210.424,11.096 219.999,11.096 219.999,21.515 225.284,21.515 
			225.284,29.328 219.999,29.328 219.999,53.758 210.424,53.758 210.424,29.328 205.829,29.328 		"/>
		<path fill="#FFFFFF" d="M259.672,40.663c0,9.728-4.979,14.553-15.089,14.553c-6.127,0-11.183-2.146-13.479-5.742
			c-1.226-1.915-1.914-4.826-1.914-8.504V21.515h9.574V39.82c0,5.058,1.684,7.123,5.666,7.123c4.059,0,5.67-2.065,5.67-7.274V21.515
			h9.572V40.663z"/>
		<path fill="#FFFFFF" d="M271.207,43.497c1.534,3.141,2.988,4.366,5.287,4.366c1.99,0,3.445-1.149,3.445-2.834
			c0-1.839-0.766-2.374-6.434-4.521c-6.664-2.603-8.732-4.979-8.732-9.879c0-6.356,5.209-10.799,12.639-10.799
			c6.128,0,9.958,2.374,12.255,7.506l-7.431,3.751c-1.531-2.989-2.758-3.984-4.9-3.984c-1.839,0-3.062,1.072-3.062,2.682
			c0,1.838,1.07,2.604,5.514,4.059c7.047,2.299,9.805,5.285,9.805,10.572c0,6.584-4.979,10.873-12.791,10.873
			c-6.281,0-10.418-2.449-13.098-7.733L271.207,43.497z"/>
		<g>
			<polygon fill="#A8E466" points="20.382,41.395 6.21,55.292 6.21,37.811 20.348,22.525 			"/>
			<polygon fill="#6ED200" points="6.202,8.224 6.202,27.186 34.271,55.292 34.271,36.422 			"/>
			<polygon fill="#C5ED99" points="34.271,36.422 34.271,55.292 48.297,40.234 48.294,22.547 			"/>
		</g>
	</g>
</g>
</svg>